<svg id="visual" viewBox="0 0 900 600" width="900" height="600" xmlns="http://www.w3.org/2000/svg" xmlns:xlink="http://www.w3.org/1999/xlink" version="1.1"><path d="M0 79L82 79L82 37L164 37L164 97L245 97L245 97L327 97L327 85L409 85L409 37L491 37L491 67L573 67L573 61L655 61L655 103L736 103L736 61L818 61L818 73L900 73L900 61L900 0L900 0L818 0L818 0L736 0L736 0L655 0L655 0L573 0L573 0L491 0L491 0L409 0L409 0L327 0L327 0L245 0L245 0L164 0L164 0L82 0L82 0L0 0Z" fill="#fdd2cf"></path><path d="M0 235L82 235L82 223L164 223L164 307L245 307L245 169L327 169L327 319L409 319L409 217L491 217L491 205L573 205L573 181L655 181L655 205L736 205L736 253L818 253L818 175L900 175L900 205L900 59L900 71L818 71L818 59L736 59L736 101L655 101L655 59L573 59L573 65L491 65L491 35L409 35L409 83L327 83L327 95L245 95L245 95L164 95L164 35L82 35L82 77L0 77Z" fill="#f0b8bb"></path><path d="M0 295L82 295L82 319L164 319L164 397L245 397L245 307L327 307L327 379L409 379L409 343L491 343L491 313L573 313L573 301L655 301L655 283L736 283L736 409L818 409L818 325L900 325L900 265L900 203L900 173L818 173L818 251L736 251L736 203L655 203L655 179L573 179L573 203L491 203L491 215L409 215L409 317L327 317L327 167L245 167L245 305L164 305L164 221L82 221L82 233L0 233Z" fill="#e29faa"></path><path d="M0 541L82 541L82 487L164 487L164 511L245 511L245 481L327 481L327 499L409 499L409 547L491 547L491 499L573 499L573 499L655 499L655 553L736 553L736 541L818 541L818 511L900 511L900 547L900 263L900 323L818 323L818 407L736 407L736 281L655 281L655 299L573 299L573 311L491 311L491 341L409 341L409 377L327 377L327 305L245 305L245 395L164 395L164 317L82 317L82 293L0 293Z" fill="#d2869c"></path><path d="M0 601L82 601L82 601L164 601L164 601L245 601L245 601L327 601L327 601L409 601L409 601L491 601L491 601L573 601L573 601L655 601L655 601L736 601L736 601L818 601L818 601L900 601L900 601L900 545L900 509L818 509L818 539L736 539L736 551L655 551L655 497L573 497L573 497L491 497L491 545L409 545L409 497L327 497L327 479L245 479L245 509L164 509L164 485L82 485L82 539L0 539Z" fill="#c06e91"></path></svg>